<?xml version="1.0" encoding="UTF-8"?>
<svg id="Layer_2" data-name="Layer 2" xmlns="http://www.w3.org/2000/svg" viewBox="0 0 1925.54 1925.54">
  <defs>
    <style>
      .cls-1 {
        fill: #27777e;
      }

      .cls-2 {
        fill: #b79a6c;
      }

      .cls-3 {
        fill: #114a55;
      }

      .cls-4 {
        fill: #ad9466;
      }

      .cls-5 {
        fill: #fff;
      }

      .cls-6 {
        fill: #1d3d3d;
      }

      .cls-7 {
        fill: #b4b1ab;
      }
    </style>
  </defs>
  <g id="Layer_1-2" data-name="Layer 1">
    <g>
      <circle class="cls-5" cx="962.77" cy="962.77" r="962.77"/>
      <g>
        <path class="cls-1" d="M844.92,260.87c141.59-10.09,268.5,74.01,251.71,228.17-9.49,87.08-83.41,150.03-171.77,138.98-70.82-8.86-122.89-77.09-89.52-146.19,19.6-40.59,83.39-67.46,113.64-22.86,9.6,14.15,12.77,51.02-7.64,56.46-15.55,4.15-9.68-5.93-12.57-12.53-5.91-13.47-44.89-11.33-44.16,15.14,1.04,37.77,45.25,51.48,76.41,39.48,62-23.87,63.86-107.77,17.16-148.86-76.05-66.91-186.13-18.25-213.64,72.12-39.32,129.14,78.88,222.53,199.79,214.42,84.54-5.68,144.43-68.2,229.1-72.43,33.38-1.67,81.65,6.6,110.8,23.47,7.15,4.14,25.56,15.43,16.3,24.67-4.25,4.25-10.22.65-15.16.53-98.38-2.27-166.6,109.95-253.01,151.37-211.06,101.17-467.45-56.22-456.04-294.31,6.4-133.53,111.83-257.9,248.6-267.65Z"/>
        <path class="cls-2" d="M1213.54,523.03c69.02-6.7,143.03,60.13,201.75,30.62,5.31-2.67,15.47-13.73,20.43-10.04,7.36,5.47-4.89,16.98-9.26,21.22-86.87,84.3-184.66-41.56-269.31,1.89-7.2,3.7-17.91,16.21-24.73,6.37-.6-2.02-.44-3.72.45-5.63,1.04-2.22,11.88-13.51,14.43-15.86,16.65-15.34,43.74-26.38,66.25-28.56Z"/>
        <path class="cls-7" d="M1235.92,438.71c16.8-1.71,33.89-.45,50.31,2.89,46.41,9.46,99.79,48.27,147,20.65,4.73-2.76,20.55-17.88,17.56-.94-1.54,8.76-26.51,26.91-34.67,31.25-79.9,42.43-150.4-51.72-226.89-14.95-5.01,2.41-16.89,12.5-20.78,12.12-3.48-.34-6.61-6.29-5.36-9.22,1.04-2.43,11.8-13.43,14.49-15.88,15.21-13.84,37.77-23.83,58.35-25.93Z"/>
      </g>
      <g>
        <path class="cls-3" d="M222,1107.39c-1.76,0-3.23-.26-4.4-.77-1.17-.51-1.76-1.35-1.76-2.53,0-1.32.55-2.34,1.65-3.08,1.1-.73,2.53-1.39,4.29-1.98,4.25-1.17,7.95-2.97,11.11-5.39,3.15-2.42,5.68-5.75,7.59-10.01,3.66-8.65,7.18-16.97,10.56-24.96,3.37-7.99,6.6-15.95,9.68-23.86,3.08-7.92,6.19-15.98,9.35-24.19,3.15-8.21,6.34-16.86,9.57-25.95,1.61-4.54,2.71-8.06,3.3-10.56.58-2.49,1.1-4.32,1.54-5.5,2.2-.58,4.25-1.17,6.16-1.76,1.9-.58,4.03-1.32,6.38-2.2,2.05-1.02,3.81-2.34,5.28-3.96,1.46-1.61,2.56-2.86,3.3-3.74.44-.29.88-.47,1.32-.55.44-.07.88.26,1.32.99.44.88.8,1.76,1.1,2.64.29.88.58,1.84.88,2.86,3.22,10.41,6.56,20.93,10.01,31.56,3.44,10.63,6.85,21.11,10.23,31.45,3.37,10.34,6.63,20.23,9.79,29.69,3.15,9.46,6.05,18.15,8.69,26.06,1.32,3.96,2.97,7.11,4.95,9.46,1.98,2.35,4.18,4.14,6.6,5.39,2.42,1.25,5.09,2.24,8.03,2.97,1.9.44,3.37,1.03,4.4,1.76,1.02.74,1.54,1.76,1.54,3.08,0,.88-.48,1.54-1.43,1.98-.96.44-2.17.66-3.63.66-2.64,0-5.98-.08-10.01-.22-4.03-.15-8.18-.33-12.43-.55-4.25-.22-8.07-.33-11.44-.33-2.93,0-6.2.08-9.79.22-3.59.15-7.19.29-10.78.44-3.59.14-6.64.22-9.13.22-1.47,0-2.75-.26-3.85-.77-1.1-.51-1.65-1.28-1.65-2.31,0-1.17.58-2.16,1.76-2.97,1.17-.8,2.56-1.35,4.18-1.65,5.28-.88,9.09-2.23,11.44-4.07,2.34-1.83,3.22-4.51,2.64-8.03-.44-2.49-1.1-5.46-1.98-8.91-.88-3.44-1.8-7.04-2.75-10.78-.96-3.74-1.95-7.15-2.97-10.23-.3-1.17-.74-2.01-1.32-2.53-.59-.51-1.69-.77-3.3-.77h-39.59c-1.03,0-1.84.33-2.42.99-.59.66-1.03,1.65-1.32,2.97-.59,1.91-1.29,4.07-2.09,6.49-.81,2.42-1.62,4.91-2.42,7.48-.81,2.57-1.54,4.95-2.2,7.15-.66,2.2-1.14,4.11-1.43,5.72-.74,3.96-.04,7.08,2.09,9.35,2.12,2.27,5.83,4.07,11.11,5.39,3.96,1.03,5.94,2.57,5.94,4.62,0,.88-.48,1.58-1.43,2.09-.96.51-2.31.77-4.07.77-3.37,0-6.89-.11-10.56-.33-3.67-.22-7.7-.33-12.1-.33s-8.69.22-12.87.66c-4.18.44-8.4.66-12.65.66ZM274.35,1043.61h30.57c2.05,0,3.08-.44,3.08-1.32,0-.44-.04-.8-.11-1.1-.08-.29-.19-.73-.33-1.32l-15.4-50.81c-.59-2.05-1.1-3.08-1.54-3.08-.3,0-.81.96-1.54,2.86l-18.48,51.03c-.3.74-.44,1.32-.44,1.76,0,.74.4,1.25,1.21,1.54.8.3,1.79.44,2.97.44Z"/>
        <path class="cls-3" d="M443.49,1109.37c-13.64,0-25-2.42-34.09-7.26-9.09-4.84-15.91-11.58-20.45-20.23-4.55-8.65-6.82-18.77-6.82-30.35v-64.22c0-4.4-.99-8.14-2.97-11.22s-4.58-5.06-7.81-5.94c-4.4-1.17-6.6-2.78-6.6-4.84,0-.88.58-1.57,1.76-2.09,1.17-.51,2.64-.77,4.4-.77,4.1,0,8.39.15,12.87.44,4.47.3,8.83.44,13.09.44,3.81,0,8.17-.11,13.09-.33,4.91-.22,9.13-.33,12.65-.33,1.76,0,3.19.22,4.29.66,1.1.44,1.65,1.18,1.65,2.2,0,1.47-.92,2.53-2.75,3.19-1.84.66-4,1.51-6.49,2.53-2.05.88-4,2.68-5.83,5.39-1.84,2.71-2.75,6.42-2.75,11.11v59.17c0,10.56,1.76,19.25,5.28,26.06,3.52,6.82,8.21,11.84,14.08,15.07,5.86,3.23,12.46,4.84,19.79,4.84,13.93,0,24.27-4.4,31.01-13.2,6.74-8.8,10.12-21.41,10.12-37.83v-12.98c0-4.98-.04-10.15-.11-15.51-.08-5.35-.19-10.45-.33-15.29,0-5.72-.41-10.37-1.21-13.97-.81-3.59-1.95-6.45-3.41-8.58-1.47-2.12-3.52-3.77-6.16-4.95-1.47-.58-3.19-1.24-5.17-1.98-1.98-.73-2.97-1.68-2.97-2.86s.58-1.98,1.76-2.42c1.17-.44,2.71-.66,4.62-.66,4.69,0,8.32.08,10.89.22,2.56.15,5.53.22,8.91.22,2.49,0,4.73-.03,6.71-.11,1.98-.07,3.92-.18,5.83-.33,1.9-.14,4.1-.22,6.6-.22,1.76,0,3.15.19,4.18.55,1.02.37,1.54,1.14,1.54,2.31,0,2.06-2.13,3.59-6.38,4.62-4.55,1.18-7.7,3.3-9.46,6.38-1.76,3.08-2.79,7.11-3.08,12.1-.59,11.58-.99,22.21-1.21,31.89-.22,9.68-.41,19.43-.55,29.25-.15,11.73-2.82,22.1-8.03,31.12-5.21,9.02-12.21,16.06-21,21.11-8.8,5.06-18.62,7.59-29.47,7.59Z"/>
        <path class="cls-3" d="M572.59,1107.17c-1.76,0-3.12-.26-4.07-.77-.96-.51-1.43-1.21-1.43-2.09,0-1.17.62-2.01,1.87-2.53,1.24-.51,2.75-.99,4.51-1.43,3.52-1.02,6.52-3,9.02-5.94,2.49-2.93,4.03-6.74,4.62-11.44,1.17-8.94,2.31-18.7,3.41-29.25,1.1-10.56,2.12-21.19,3.08-31.89.95-10.7,1.72-20.75,2.31-30.13v-7.48c-.15-2.2-.55-3.99-1.21-5.39-.66-1.39-1.8-2.67-3.41-3.85-2.06-1.46-4.18-2.6-6.38-3.41-2.2-.8-4.69-1.5-7.48-2.09-1.62-.29-2.9-.84-3.85-1.65-.96-.8-1.43-1.79-1.43-2.97s.58-1.98,1.76-2.42c1.17-.44,2.71-.66,4.62-.66s4.47.08,7.7.22c3.22.15,6.71.33,10.45.55s7.44.41,11.11.55c3.66.15,6.89.22,9.68.22,1.17,0,2.2.37,3.08,1.1.88.74,1.46,1.62,1.76,2.64.88,2.79,1.76,5.5,2.64,8.14.88,2.64,1.83,5.43,2.86,8.36l32.99,80.72c.44.74,1.02,1.14,1.76,1.21.73.08,1.24-.25,1.54-.99l35.41-78.74c1.02-4.25,1.87-7.99,2.53-11.22.66-3.22,1.28-5.79,1.87-7.7.44-1.9,1.39-2.86,2.86-2.86h9.02c5.57-.29,11.44-.73,17.6-1.32,6.16-.58,10.92-.88,14.3-.88,1.17,0,2.31.19,3.41.55,1.1.37,1.65,1.14,1.65,2.31s-.44,2.06-1.32,2.64c-.88.59-2.2,1.25-3.96,1.98-1.18.3-2.57.77-4.18,1.43-1.62.66-3.01,1.29-4.18,1.87-3.08,1.32-5.39,3.01-6.93,5.06-1.54,2.06-2.24,4.99-2.09,8.8.14,10.41.44,19.76.88,28.04.44,8.29.84,16.06,1.21,23.31.36,7.26.84,14.66,1.43,22.21.58,7.55,1.1,15.87,1.54,24.96.29,4.11,1.87,7.33,4.73,9.68,2.86,2.35,6.71,4.11,11.55,5.28,1.76.44,3.19.96,4.29,1.54,1.1.59,1.65,1.47,1.65,2.64,0,1.03-.48,1.76-1.43,2.2-.96.44-2.24.66-3.85.66-3.37,0-6.89-.08-10.56-.22-3.67-.15-7.22-.3-10.67-.44-3.45-.14-6.71-.22-9.79-.22s-5.94.08-9.02.22-6.23.33-9.46.55c-3.23.22-6.6.33-10.12.33-1.47,0-2.75-.26-3.85-.77-1.1-.51-1.65-1.21-1.65-2.09,0-1.17.55-2.12,1.65-2.86,1.1-.73,2.53-1.24,4.29-1.54,4.98-1.02,8.47-2.56,10.45-4.62,1.98-2.05,2.82-5.5,2.53-10.34-.15-9.53-.37-18.7-.66-27.49-.3-8.8-.59-17.52-.88-26.17-.3-8.65-.66-17.38-1.1-26.17-.15-1.17-.48-1.72-.99-1.65-.52.08-1.07.7-1.65,1.87l-44.87,101.17c-.59,1.61-1.54,2.31-2.86,2.09-1.32-.22-2.2-.92-2.64-2.09-6.75-17.01-13.82-33.83-21.22-50.48-7.41-16.64-14.7-33.54-21.88-50.7-.44-1.17-1.07-1.61-1.87-1.32-.81.3-1.29,1.1-1.43,2.42-.74,8.21-1.4,16.68-1.98,25.4-.59,8.73-.96,17.41-1.1,26.06-.15,8.65-.22,17.23-.22,25.73,0,3.96,1.28,7.33,3.85,10.12,2.56,2.79,6.49,4.84,11.77,6.16,1.76.3,3.26.77,4.51,1.43,1.24.66,1.87,1.58,1.87,2.75,0,1.03-.59,1.76-1.76,2.2-1.18.44-2.5.66-3.96.66-3.96,0-6.97-.08-9.02-.22-2.06-.15-3.96-.3-5.72-.44s-4.11-.22-7.04-.22c-3.08,0-5.98.08-8.69.22-2.71.14-5.24.33-7.59.55-2.35.22-4.4.33-6.16.33Z"/>
        <path class="cls-3" d="M839.6,1109.37c-13.64,0-25-2.42-34.09-7.26-9.09-4.84-15.91-11.58-20.46-20.23-4.55-8.65-6.82-18.77-6.82-30.35v-64.22c0-4.4-.99-8.14-2.97-11.22s-4.58-5.06-7.81-5.94c-4.4-1.17-6.6-2.78-6.6-4.84,0-.88.58-1.57,1.76-2.09,1.17-.51,2.64-.77,4.4-.77,4.1,0,8.39.15,12.87.44,4.47.3,8.83.44,13.09.44,3.81,0,8.17-.11,13.09-.33,4.91-.22,9.13-.33,12.65-.33,1.76,0,3.19.22,4.29.66,1.1.44,1.65,1.18,1.65,2.2,0,1.47-.92,2.53-2.75,3.19-1.84.66-4,1.51-6.49,2.53-2.06.88-4,2.68-5.83,5.39-1.84,2.71-2.75,6.42-2.75,11.11v59.17c0,10.56,1.76,19.25,5.28,26.06,3.52,6.82,8.21,11.84,14.08,15.07,5.86,3.23,12.46,4.84,19.8,4.84,13.93,0,24.27-4.4,31.01-13.2,6.74-8.8,10.12-21.41,10.12-37.83v-12.98c0-4.98-.04-10.15-.11-15.51-.08-5.35-.19-10.45-.33-15.29,0-5.72-.41-10.37-1.21-13.97-.81-3.59-1.95-6.45-3.41-8.58-1.47-2.12-3.52-3.77-6.16-4.95-1.47-.58-3.19-1.24-5.17-1.98-1.98-.73-2.97-1.68-2.97-2.86s.58-1.98,1.76-2.42c1.17-.44,2.71-.66,4.62-.66,4.69,0,8.32.08,10.89.22,2.56.15,5.53.22,8.91.22,2.49,0,4.73-.03,6.71-.11,1.98-.07,3.92-.18,5.83-.33,1.9-.14,4.1-.22,6.6-.22,1.76,0,3.15.19,4.18.55,1.02.37,1.54,1.14,1.54,2.31,0,2.06-2.13,3.59-6.38,4.62-4.55,1.18-7.7,3.3-9.46,6.38-1.76,3.08-2.79,7.11-3.08,12.1-.59,11.58-.99,22.21-1.21,31.89-.22,9.68-.41,19.43-.55,29.25-.15,11.73-2.82,22.1-8.03,31.12-5.21,9.02-12.21,16.06-21,21.11-8.8,5.06-18.62,7.59-29.47,7.59Z"/>
        <path class="cls-3" d="M1056.25,1110.91c-6.31,0-11.81-.7-16.5-2.09-4.69-1.4-8.73-3.41-12.1-6.05-3.37-2.64-6.45-5.72-9.24-9.24-3.23-4.4-6.38-8.69-9.46-12.87-3.08-4.18-6.2-8.8-9.35-13.86-3.16-5.06-6.64-11.11-10.45-18.15-1.91-3.37-4.33-5.86-7.26-7.48-1.91-1.02-3.85-1.76-5.83-2.2-1.98-.44-3.63-.66-4.95-.66-.88-.14-1.54.22-1.98,1.1s-.66,1.98-.66,3.3v40.91c0,4.55,1.21,8.07,3.63,10.56,2.42,2.5,6.56,4.4,12.43,5.72,1.9.3,3.3.77,4.18,1.43.88.66,1.32,1.58,1.32,2.75,0,1.03-.41,1.76-1.21,2.2-.81.44-2.02.66-3.63.66-3.37,0-6.82-.11-10.34-.33-3.52-.22-6.93-.4-10.23-.55-3.3-.14-6.42-.22-9.35-.22-3.23,0-6.56.08-10.01.22-3.45.15-6.93.36-10.45.66-3.52.29-7.04.44-10.56.44-1.32,0-2.5-.26-3.52-.77-1.03-.51-1.54-1.21-1.54-2.09,0-2.2,1.83-3.66,5.5-4.4,5.57-1.17,9.53-2.78,11.88-4.84,2.34-2.05,3.52-5.5,3.52-10.34v-97.22c0-4.25-.33-7.51-.99-9.79-.66-2.27-1.95-3.99-3.85-5.17-1.91-1.17-4.77-2.05-8.58-2.64-2.05-.29-3.52-.88-4.4-1.76-.88-.88-1.32-1.76-1.32-2.64,0-1.02.47-1.79,1.43-2.31.95-.51,2.23-.77,3.85-.77,4.4,0,7.92.08,10.56.22,2.64.15,5.17.33,7.59.55,2.42.22,5.31.33,8.69.33s6.08-.14,8.58-.44c2.49-.29,5.28-.58,8.36-.88,3.08-.29,7.04-.44,11.88-.44,16.86,0,29.77,2.93,38.71,8.8,8.94,5.87,13.42,14.81,13.42,26.83,0,6.6-1.4,12.21-4.18,16.83-2.79,4.62-6.27,8.4-10.45,11.33-4.18,2.93-8.47,5.21-12.87,6.82-.59.15-.85.52-.77,1.1.07.59.33,1.1.77,1.54,4.4,6.75,8.69,13.16,12.87,19.25,4.18,6.09,8.58,11.84,13.2,17.27,4.62,5.43,9.64,10.63,15.07,15.62,4.54,4.25,9.2,6.78,13.97,7.59,4.76.81,9.71,1.21,14.85,1.21,2.2,0,3.3,1.1,3.3,3.3,0,2.93-1.1,5.24-3.3,6.93-2.2,1.68-5.1,2.89-8.69,3.63-3.59.73-7.44,1.1-11.55,1.1ZM977.95,1031.95c6.01,0,11.03-1.35,15.07-4.07,4.03-2.71,7.11-6.34,9.24-10.89,2.12-4.54,3.19-9.6,3.19-15.18,0-6.6-.81-12.21-2.42-16.83-1.62-4.62-4.36-8.21-8.25-10.78-3.89-2.56-9.2-3.85-15.95-3.85-3.82,0-6.42,1.36-7.81,4.07-1.4,2.71-2.16,8.18-2.31,16.39-.15,3.37-.22,7.81-.22,13.31v19.69c0,3.23.84,5.39,2.53,6.49,1.68,1.1,3.99,1.65,6.93,1.65Z"/>
        <path class="cls-3" d="M1082.86,1107.17c-1.76,0-3.12-.26-4.07-.77-.96-.51-1.43-1.21-1.43-2.09,0-1.17.62-2.01,1.87-2.53,1.24-.51,2.75-.99,4.51-1.43,3.52-1.02,6.52-3,9.02-5.94,2.49-2.93,4.03-6.74,4.62-11.44,1.17-8.94,2.31-18.7,3.41-29.25,1.1-10.56,2.12-21.19,3.08-31.89.95-10.7,1.72-20.75,2.31-30.13v-7.48c-.15-2.2-.55-3.99-1.21-5.39-.66-1.39-1.8-2.67-3.41-3.85-2.06-1.46-4.18-2.6-6.38-3.41-2.2-.8-4.69-1.5-7.48-2.09-1.62-.29-2.9-.84-3.85-1.65-.96-.8-1.43-1.79-1.43-2.97s.58-1.98,1.76-2.42c1.17-.44,2.71-.66,4.62-.66s4.47.08,7.7.22c3.22.15,6.71.33,10.45.55,3.74.22,7.44.41,11.11.55,3.66.15,6.89.22,9.68.22,1.17,0,2.2.37,3.08,1.1.88.74,1.46,1.62,1.76,2.64.88,2.79,1.76,5.5,2.64,8.14.88,2.64,1.83,5.43,2.86,8.36l32.99,80.72c.44.74,1.02,1.14,1.76,1.21.73.08,1.24-.25,1.54-.99l35.41-78.74c1.02-4.25,1.87-7.99,2.53-11.22.66-3.22,1.28-5.79,1.87-7.7.44-1.9,1.39-2.86,2.86-2.86h9.02c5.57-.29,11.44-.73,17.6-1.32,6.16-.58,10.92-.88,14.3-.88,1.17,0,2.31.19,3.41.55,1.1.37,1.65,1.14,1.65,2.31s-.44,2.06-1.32,2.64c-.88.59-2.2,1.25-3.96,1.98-1.18.3-2.57.77-4.18,1.43-1.62.66-3.01,1.29-4.18,1.87-3.08,1.32-5.39,3.01-6.93,5.06-1.54,2.06-2.24,4.99-2.09,8.8.14,10.41.44,19.76.88,28.04.44,8.29.84,16.06,1.21,23.31.36,7.26.84,14.66,1.43,22.21.58,7.55,1.1,15.87,1.54,24.96.29,4.11,1.87,7.33,4.73,9.68,2.86,2.35,6.71,4.11,11.55,5.28,1.76.44,3.19.96,4.29,1.54,1.1.59,1.65,1.47,1.65,2.64,0,1.03-.48,1.76-1.43,2.2-.96.44-2.24.66-3.85.66-3.37,0-6.89-.08-10.56-.22-3.67-.15-7.22-.3-10.67-.44-3.45-.14-6.71-.22-9.79-.22s-5.94.08-9.02.22-6.23.33-9.46.55c-3.23.22-6.6.33-10.12.33-1.47,0-2.75-.26-3.85-.77-1.1-.51-1.65-1.21-1.65-2.09,0-1.17.55-2.12,1.65-2.86,1.1-.73,2.53-1.24,4.29-1.54,4.98-1.02,8.47-2.56,10.45-4.62,1.98-2.05,2.82-5.5,2.53-10.34-.15-9.53-.37-18.7-.66-27.49-.3-8.8-.59-17.52-.88-26.17-.3-8.65-.66-17.38-1.1-26.17-.15-1.17-.48-1.72-.99-1.65-.52.08-1.07.7-1.65,1.87l-44.87,101.17c-.59,1.61-1.54,2.31-2.86,2.09s-2.2-.92-2.64-2.09c-6.75-17.01-13.82-33.83-21.22-50.48-7.41-16.64-14.7-33.54-21.88-50.7-.44-1.17-1.07-1.61-1.87-1.32-.81.3-1.29,1.1-1.43,2.42-.74,8.21-1.4,16.68-1.98,25.4-.59,8.73-.96,17.41-1.1,26.06-.15,8.65-.22,17.23-.22,25.73,0,3.96,1.28,7.33,3.85,10.12,2.56,2.79,6.49,4.84,11.77,6.16,1.76.3,3.26.77,4.51,1.43,1.24.66,1.87,1.58,1.87,2.75,0,1.03-.59,1.76-1.76,2.2-1.18.44-2.5.66-3.96.66-3.96,0-6.97-.08-9.02-.22-2.06-.15-3.96-.3-5.72-.44-1.76-.14-4.11-.22-7.04-.22-3.08,0-5.98.08-8.69.22-2.71.14-5.24.33-7.59.55-2.35.22-4.4.33-6.16.33Z"/>
        <path class="cls-3" d="M1349.87,1109.37c-13.64,0-25-2.42-34.09-7.26-9.09-4.84-15.91-11.58-20.46-20.23-4.55-8.65-6.82-18.77-6.82-30.35v-64.22c0-4.4-.99-8.14-2.97-11.22s-4.58-5.06-7.81-5.94c-4.4-1.17-6.6-2.78-6.6-4.84,0-.88.58-1.57,1.76-2.09,1.17-.51,2.64-.77,4.4-.77,4.1,0,8.39.15,12.87.44,4.47.3,8.83.44,13.09.44,3.81,0,8.17-.11,13.09-.33,4.91-.22,9.13-.33,12.65-.33,1.76,0,3.19.22,4.29.66,1.1.44,1.65,1.18,1.65,2.2,0,1.47-.92,2.53-2.75,3.19-1.84.66-4,1.51-6.49,2.53-2.06.88-4,2.68-5.83,5.39-1.84,2.71-2.75,6.42-2.75,11.11v59.17c0,10.56,1.76,19.25,5.28,26.06,3.52,6.82,8.21,11.84,14.08,15.07,5.86,3.23,12.46,4.84,19.8,4.84,13.93,0,24.27-4.4,31.01-13.2,6.74-8.8,10.12-21.41,10.12-37.83v-12.98c0-4.98-.04-10.15-.11-15.51-.08-5.35-.19-10.45-.33-15.29,0-5.72-.41-10.37-1.21-13.97-.81-3.59-1.95-6.45-3.41-8.58-1.47-2.12-3.52-3.77-6.16-4.95-1.47-.58-3.19-1.24-5.17-1.98-1.98-.73-2.97-1.68-2.97-2.86s.58-1.98,1.76-2.42c1.17-.44,2.71-.66,4.62-.66,4.69,0,8.32.08,10.89.22,2.56.15,5.53.22,8.91.22,2.49,0,4.73-.03,6.71-.11,1.98-.07,3.92-.18,5.83-.33,1.9-.14,4.1-.22,6.6-.22,1.76,0,3.15.19,4.18.55,1.02.37,1.54,1.14,1.54,2.31,0,2.06-2.13,3.59-6.38,4.62-4.55,1.18-7.7,3.3-9.46,6.38-1.76,3.08-2.79,7.11-3.08,12.1-.59,11.58-.99,22.21-1.21,31.89-.22,9.68-.41,19.43-.55,29.25-.15,11.73-2.82,22.1-8.03,31.12-5.21,9.02-12.21,16.06-21,21.11-8.8,5.06-18.62,7.59-29.47,7.59Z"/>
        <path class="cls-3" d="M1566.51,1110.91c-6.31,0-11.81-.7-16.5-2.09-4.69-1.4-8.73-3.41-12.1-6.05-3.37-2.64-6.45-5.72-9.24-9.24-3.23-4.4-6.38-8.69-9.46-12.87-3.08-4.18-6.2-8.8-9.35-13.86-3.16-5.06-6.64-11.11-10.45-18.15-1.91-3.37-4.33-5.86-7.26-7.48-1.91-1.02-3.85-1.76-5.83-2.2-1.98-.44-3.63-.66-4.95-.66-.88-.14-1.54.22-1.98,1.1s-.66,1.98-.66,3.3v40.91c0,4.55,1.21,8.07,3.63,10.56,2.42,2.5,6.56,4.4,12.43,5.72,1.9.3,3.3.77,4.18,1.43.88.66,1.32,1.58,1.32,2.75,0,1.03-.41,1.76-1.21,2.2-.81.44-2.02.66-3.63.66-3.37,0-6.82-.11-10.34-.33-3.52-.22-6.93-.4-10.23-.55-3.3-.14-6.42-.22-9.35-.22-3.23,0-6.56.08-10.01.22-3.45.15-6.93.36-10.45.66-3.52.29-7.04.44-10.56.44-1.32,0-2.5-.26-3.52-.77-1.03-.51-1.54-1.21-1.54-2.09,0-2.2,1.83-3.66,5.5-4.4,5.57-1.17,9.53-2.78,11.88-4.84,2.34-2.05,3.52-5.5,3.52-10.34v-97.22c0-4.25-.33-7.51-.99-9.79-.66-2.27-1.95-3.99-3.85-5.17-1.91-1.17-4.77-2.05-8.58-2.64-2.05-.29-3.52-.88-4.4-1.76-.88-.88-1.32-1.76-1.32-2.64,0-1.02.47-1.79,1.43-2.31.95-.51,2.23-.77,3.85-.77,4.4,0,7.92.08,10.56.22,2.64.15,5.17.33,7.59.55,2.42.22,5.31.33,8.69.33s6.08-.14,8.58-.44c2.49-.29,5.28-.58,8.36-.88,3.08-.29,7.04-.44,11.88-.44,16.86,0,29.77,2.93,38.71,8.8,8.94,5.87,13.42,14.81,13.42,26.83,0,6.6-1.4,12.21-4.18,16.83-2.79,4.62-6.27,8.4-10.45,11.33-4.18,2.93-8.47,5.21-12.87,6.82-.59.15-.85.52-.77,1.1.07.59.33,1.1.77,1.54,4.4,6.75,8.69,13.16,12.87,19.25,4.18,6.09,8.58,11.84,13.2,17.27,4.62,5.43,9.64,10.63,15.07,15.62,4.54,4.25,9.2,6.78,13.97,7.59,4.76.81,9.71,1.21,14.85,1.21,2.2,0,3.3,1.1,3.3,3.3,0,2.93-1.1,5.24-3.3,6.93-2.2,1.68-5.1,2.89-8.69,3.63-3.59.73-7.44,1.1-11.55,1.1ZM1488.21,1031.95c6.01,0,11.03-1.35,15.07-4.07,4.03-2.71,7.11-6.34,9.24-10.89,2.12-4.54,3.19-9.6,3.19-15.18,0-6.6-.81-12.21-2.42-16.83-1.62-4.62-4.36-8.21-8.25-10.78-3.89-2.56-9.2-3.85-15.95-3.85-3.82,0-6.42,1.36-7.81,4.07-1.4,2.71-2.16,8.18-2.31,16.39-.15,3.37-.22,7.81-.22,13.31v19.69c0,3.23.84,5.39,2.53,6.49,1.68,1.1,3.99,1.65,6.93,1.65Z"/>
        <path class="cls-3" d="M1594,1107.39c-1.62,0-2.9-.3-3.85-.88-.96-.58-1.43-1.32-1.43-2.2,0-1.9,1.9-3.3,5.72-4.18,5.28-1.32,9.05-2.97,11.33-4.95,2.27-1.98,3.41-5.39,3.41-10.23v-99.64c0-4.98-.99-8.5-2.97-10.56-1.98-2.05-5.68-3.66-11.11-4.84-2.06-.44-3.52-1.06-4.4-1.87-.88-.8-1.32-1.65-1.32-2.53,0-1.02.47-1.79,1.43-2.31.95-.51,2.23-.77,3.85-.77,4.25,0,8.32.08,12.21.22,3.88.15,7.66.3,11.33.44,3.66.15,7.48.22,11.44.22,6.74,0,13.89-.07,21.44-.22,7.55-.14,14.33-.22,20.35-.22,4.84-.14,8.83-.36,11.99-.66,3.15-.29,5.02-.44,5.61-.44,1.02,0,2.09.22,3.19.66,1.1.44,1.72,1.32,1.87,2.64.58,4.84,1.32,9.61,2.2,14.3.88,4.69,1.32,8.8,1.32,12.32,0,1.32-.33,2.31-.99,2.97-.66.66-1.36.99-2.09.99s-1.4-.25-1.98-.77c-.59-.51-1.1-1.28-1.54-2.31-1.18-3.37-2.27-6.3-3.3-8.8-1.03-2.49-2.2-4.4-3.52-5.72-1.91-2.05-4.11-3.66-6.6-4.84-2.5-1.17-5.5-1.76-9.02-1.76h-20.46c-2.64,0-5.06.77-7.26,2.31-2.2,1.54-3.3,3.7-3.3,6.49v43.11c0,1.62.47,2.86,1.43,3.74.95.88,2.09,1.32,3.41,1.32h20.23c3.96,0,6.78-1.1,8.47-3.3,1.68-2.2,3.11-5.2,4.29-9.02,1.02-2.93,2.42-4.4,4.18-4.4.73,0,1.39.41,1.98,1.21.58.81.88,1.87.88,3.19-.15,1.47-.3,3.23-.44,5.28-.15,2.06-.26,4.11-.33,6.16-.08,2.06-.11,3.89-.11,5.5,0,1.76.03,3.74.11,5.94.07,2.2.14,4.36.22,6.49.07,2.13.18,3.92.33,5.39.14,1.62.03,2.86-.33,3.74-.37.88-.99,1.32-1.87,1.32-2.35,0-4.03-2.05-5.06-6.16-1.18-4.1-2.57-7.18-4.18-9.24-1.61-2.05-3.81-3.08-6.6-3.08h-20.67c-1.91,0-3.37.37-4.4,1.1-1.03.74-1.54,2.13-1.54,4.18v41.79c0,4.84,1.02,8.21,3.08,10.12,2.05,1.91,5.2,2.86,9.46,2.86h18.04c3.66,0,7-.36,10.01-1.1,3-.73,5.61-1.9,7.81-3.52,2.49-1.76,4.73-4.14,6.71-7.15,1.98-3,3.92-6.34,5.83-10.01.58-1.17,1.17-1.94,1.76-2.31.58-.36,1.32-.55,2.2-.55.73.15,1.28.59,1.65,1.32.36.74.55,1.54.55,2.42,0,2.06-.37,4.69-1.1,7.92-.74,3.23-1.65,6.56-2.75,10.01-1.1,3.45-2.09,6.64-2.97,9.57-.44,1.03-1.03,1.8-1.76,2.31-.74.51-1.62.77-2.64.77-3.52,0-8.03-.04-13.53-.11-5.5-.08-11.47-.19-17.93-.33-6.45-.15-13.05-.26-19.8-.33-6.75-.08-13.2-.11-19.35-.11-3.08,0-6.2.07-9.35.22-3.16.14-6.34.33-9.57.55-3.23.22-6.53.33-9.9.33Z"/>
      </g>
      <g>
        <path class="cls-3" d="M511.01,1336c-3.96,0-8.73-.15-14.3-.44-5.57-.3-11.18-.55-16.83-.77-5.65-.22-10.3-.33-13.97-.33-2.93,0-5.9.03-8.91.11-3.01.07-6.12.22-9.35.44-3.23.22-6.67.33-10.34.33-1.32,0-2.5-.26-3.52-.77-1.03-.51-1.54-1.28-1.54-2.31,0-1.32.47-2.27,1.43-2.86.95-.58,2.38-1.02,4.29-1.32,5.57-1.17,9.38-2.78,11.44-4.84,2.05-2.05,3.08-5.5,3.08-10.34v-99.42c0-4.98-.99-8.5-2.97-10.56-1.98-2.05-5.83-3.66-11.55-4.84-1.91-.29-3.34-.77-4.29-1.43-.96-.66-1.43-1.65-1.43-2.97,0-1.02.51-1.79,1.54-2.31,1.02-.51,2.2-.77,3.52-.77,3.52,0,6.89.04,10.12.11,3.22.08,6.41.22,9.57.44,3.15.22,6.34.33,9.57.33,2.2,0,5.17-.11,8.91-.33,3.74-.22,7.77-.44,12.1-.66,4.32-.22,8.39-.44,12.21-.66,3.81-.22,6.89-.33,9.24-.33,12.32,0,23.39,1.76,33.21,5.28,9.82,3.52,18.22,8.43,25.18,14.74,6.96,6.31,12.28,13.78,15.95,22.43,3.66,8.65,5.5,18.04,5.5,28.15s-1.84,19.72-5.5,28.81c-3.67,9.09-8.91,17.16-15.73,24.19s-15.03,12.61-24.63,16.72c-9.61,4.11-20.27,6.16-32,6.16ZM507.71,1325.88c10.56,0,19.54-2.53,26.94-7.59,7.4-5.06,13.01-12.17,16.83-21.33,3.81-9.16,5.72-19.76,5.72-31.78,0-9.97-1.29-19.03-3.85-27.16-2.57-8.14-6.16-15.03-10.78-20.67-4.62-5.64-10.12-10.01-16.5-13.09s-13.31-4.62-20.78-4.62c-5.28,0-9.71.15-13.31.44-3.59.3-6.31,1.14-8.14,2.53-1.84,1.4-2.75,3.7-2.75,6.93v96.78c0,5.13,1.13,9.13,3.41,11.99,2.27,2.86,5.42,4.84,9.46,5.94,4.03,1.1,8.61,1.65,13.75,1.65Z"/>
        <path class="cls-3" d="M600.3,1335.56c-1.62,0-2.9-.3-3.85-.88-.96-.58-1.43-1.32-1.43-2.2,0-1.9,1.9-3.3,5.72-4.18,5.28-1.32,9.05-2.97,11.33-4.95,2.27-1.98,3.41-5.39,3.41-10.23v-99.64c0-4.98-.99-8.5-2.97-10.56-1.98-2.05-5.68-3.66-11.11-4.84-2.06-.44-3.52-1.06-4.4-1.87-.88-.8-1.32-1.65-1.32-2.53,0-1.02.47-1.79,1.43-2.31.95-.51,2.23-.77,3.85-.77,4.25,0,8.32.08,12.21.22,3.88.15,7.66.3,11.33.44,3.66.15,7.48.22,11.44.22,6.74,0,13.89-.07,21.44-.22,7.55-.14,14.33-.22,20.35-.22,4.84-.14,8.83-.36,11.99-.66,3.15-.29,5.02-.44,5.61-.44,1.02,0,2.09.22,3.19.66,1.1.44,1.72,1.32,1.87,2.64.58,4.84,1.32,9.61,2.2,14.3.88,4.69,1.32,8.8,1.32,12.32,0,1.32-.33,2.31-.99,2.97-.66.66-1.36.99-2.09.99s-1.4-.25-1.98-.77c-.59-.51-1.1-1.28-1.54-2.31-1.18-3.37-2.27-6.3-3.3-8.8-1.03-2.49-2.2-4.4-3.52-5.72-1.91-2.05-4.11-3.66-6.6-4.84-2.5-1.17-5.5-1.76-9.02-1.76h-20.46c-2.64,0-5.06.77-7.26,2.31-2.2,1.54-3.3,3.7-3.3,6.49v43.11c0,1.62.47,2.86,1.43,3.74.95.88,2.09,1.32,3.41,1.32h20.23c3.96,0,6.78-1.1,8.47-3.3,1.68-2.2,3.11-5.2,4.29-9.02,1.02-2.93,2.42-4.4,4.18-4.4.73,0,1.39.41,1.98,1.21.58.81.88,1.87.88,3.19-.15,1.47-.3,3.23-.44,5.28-.15,2.06-.26,4.11-.33,6.16-.08,2.06-.11,3.89-.11,5.5,0,1.76.03,3.74.11,5.94.07,2.2.14,4.36.22,6.49.07,2.13.18,3.92.33,5.39.14,1.62.03,2.86-.33,3.74-.37.88-.99,1.32-1.87,1.32-2.35,0-4.03-2.05-5.06-6.16-1.18-4.1-2.57-7.18-4.18-9.24-1.61-2.05-3.81-3.08-6.6-3.08h-20.67c-1.91,0-3.38.37-4.4,1.1-1.03.74-1.54,2.13-1.54,4.18v41.79c0,4.84,1.02,8.21,3.08,10.12,2.05,1.91,5.2,2.86,9.46,2.86h18.04c3.66,0,7-.36,10.01-1.1,3-.73,5.61-1.9,7.81-3.52,2.49-1.76,4.73-4.14,6.71-7.15,1.98-3,3.92-6.34,5.83-10.01.58-1.17,1.17-1.94,1.76-2.31.58-.36,1.32-.55,2.2-.55.73.15,1.28.59,1.65,1.32.36.74.55,1.54.55,2.42,0,2.06-.37,4.69-1.1,7.92-.74,3.23-1.65,6.56-2.75,10.01-1.1,3.45-2.09,6.64-2.97,9.57-.44,1.03-1.03,1.8-1.76,2.31-.73.51-1.62.77-2.64.77-3.52,0-8.03-.04-13.53-.11-5.5-.08-11.47-.19-17.93-.33-6.45-.15-13.05-.26-19.8-.33-6.75-.08-13.2-.11-19.36-.11-3.08,0-6.2.07-9.35.22-3.15.14-6.34.33-9.57.55-3.23.22-6.53.33-9.9.33Z"/>
        <path class="cls-3" d="M756.46,1337.76c-6.31,0-12.28-.81-17.93-2.42-5.65-1.61-10.82-4.03-15.51-7.26-.88-.73-1.69-1.5-2.42-2.31-.74-.8-1.32-1.72-1.76-2.75-1.18-3.66-1.98-8.17-2.42-13.53-.44-5.35-.59-10.52-.44-15.51,0-1.02.4-1.76,1.21-2.2.8-.44,1.79-.66,2.97-.66s2.09.19,2.75.55c.66.37,1.13,1.07,1.43,2.09,3.22,11,7.92,19.58,14.08,25.73,6.16,6.16,13.12,9.24,20.89,9.24,4.84,0,8.94-1.1,12.32-3.3,3.37-2.2,5.94-5.06,7.7-8.58,1.76-3.52,2.64-7.33,2.64-11.44,0-5.13-.92-9.38-2.75-12.76-1.84-3.37-4.58-6.41-8.25-9.13-3.67-2.71-8.29-5.61-13.86-8.69-6.01-3.52-11.88-7.22-17.6-11.11-5.72-3.88-10.41-8.5-14.08-13.86-3.67-5.35-5.5-11.99-5.5-19.91s2.09-15.43,6.27-21.66c4.18-6.23,10.01-11.11,17.49-14.63,7.48-3.52,16.13-5.28,25.95-5.28,5.42,0,10.48.59,15.18,1.76,4.69,1.18,8.43,2.35,11.22,3.52,1.61.59,2.82,1.32,3.63,2.2.8.88,1.43,2.27,1.87,4.18.88,3.08,1.65,6.75,2.31,11,.66,4.25.99,8.73.99,13.42,0,1.76-1.32,2.64-3.96,2.64-1.18,0-2.35-.29-3.52-.88-1.18-.58-1.91-1.39-2.2-2.42-2.64-8.5-6.27-14.96-10.89-19.36-4.62-4.4-10.3-6.6-17.05-6.6-4.55,0-8.43.77-11.66,2.31-3.23,1.54-5.79,3.89-7.7,7.04-1.91,3.15-2.86,7.22-2.86,12.21,0,3.81,1.28,7.33,3.85,10.56,2.56,3.23,6.16,6.38,10.78,9.46s9.79,6.45,15.51,10.12c7.04,4.11,12.94,8.25,17.71,12.43,4.76,4.18,8.39,8.8,10.89,13.86,2.49,5.06,3.74,11.04,3.74,17.93,0,9.68-2.13,17.78-6.38,24.3-4.25,6.53-10.19,11.44-17.82,14.74-7.63,3.3-16.57,4.95-26.83,4.95Z"/>
        <path class="cls-3" d="M863.79,1335.34c-1.32,0-2.5-.26-3.52-.77-1.03-.51-1.54-1.21-1.54-2.09,0-2.2,1.83-3.66,5.5-4.4,5.57-1.17,9.42-2.78,11.55-4.84,2.12-2.05,3.19-5.5,3.19-10.34v-96.78c0-5.57-.92-9.68-2.75-12.32-1.84-2.64-5.39-4.54-10.67-5.72-2.05-.44-3.52-1.06-4.4-1.87-.88-.8-1.32-1.65-1.32-2.53,0-1.02.47-1.79,1.43-2.31.95-.51,2.23-.77,3.85-.77,4.1,0,8.06.08,11.88.22,3.81.15,7.55.3,11.22.44,3.66.15,7.4.22,11.22.22h34.97c5.57,0,10.59-.4,15.07-1.21,4.47-.8,8.25-1.21,11.33-1.21.88,0,1.87.26,2.97.77,1.1.52,1.72,1.43,1.87,2.75.29,2.79.51,5.94.66,9.46.14,3.52.25,6.89.33,10.12.07,3.23.11,5.79.11,7.7,0,2.93-.81,4.4-2.42,4.4-.74,0-1.51-.29-2.31-.88-.81-.58-1.36-1.39-1.65-2.42-.88-3.22-1.87-6.12-2.97-8.69-1.1-2.56-2.46-4.58-4.07-6.05-1.91-2.2-4.14-3.74-6.71-4.62-2.57-.88-5.54-1.32-8.91-1.32h-20.01c-3.52,0-6.12.99-7.81,2.97-1.69,1.98-2.53,4.51-2.53,7.59v40.91c0,1.47.33,2.68.99,3.63.66.96,1.72,1.43,3.19,1.43,3.96,0,7.95-.07,11.99-.22,4.03-.14,7.59-.22,10.67-.22,3.52,0,6.27-1.02,8.25-3.08,1.98-2.05,3.55-4.54,4.73-7.48.58-1.02,1.28-1.9,2.09-2.64.8-.73,1.57-1.1,2.31-1.1s1.43.37,2.09,1.1c.66.74.91,1.84.77,3.3-.3,2.79-.55,5.39-.77,7.81-.22,2.42-.33,4.66-.33,6.71,0,2.64.07,4.99.22,7.04.14,2.06.36,4.77.66,8.14.14,1.62.03,2.86-.33,3.74-.37.88-.99,1.32-1.87,1.32-1.18,0-2.24-.58-3.19-1.76-.96-1.17-1.58-2.34-1.87-3.52-1.18-3.96-2.68-6.67-4.51-8.14-1.84-1.46-3.92-2.2-6.27-2.2-1.76,0-3.56-.03-5.39-.11-1.84-.07-3.56-.11-5.17-.11h-6.71c-2.27,0-4.51.08-6.71.22-1.62.15-2.86.63-3.74,1.43-.88.81-1.32,2.09-1.32,3.85,0,6.75.03,13.64.11,20.67.07,7.04.18,14.08.33,21.11.14,4.55,1.39,7.92,3.74,10.12,2.34,2.2,6.45,3.96,12.32,5.28,1.9.3,3.3.77,4.18,1.43s1.32,1.58,1.32,2.75c0,1.03-.41,1.76-1.21,2.2-.81.44-2.02.66-3.63.66-3.37,0-6.86-.11-10.45-.33-3.59-.22-7.04-.4-10.34-.55-3.3-.14-6.34-.22-9.13-.22-3.23,0-6.53.08-9.9.22-3.37.15-6.78.36-10.23.66-3.45.29-6.93.44-10.45.44Z"/>
        <path class="cls-3" d="M975.96,1335.56c-1.61,0-2.86-.33-3.74-.99s-1.32-1.35-1.32-2.09c0-1.17.51-2.09,1.54-2.75,1.02-.66,2.05-1.13,3.08-1.43,5.28-1.32,9.16-2.97,11.66-4.95,2.49-1.98,3.74-5.24,3.74-9.79v-101.17c0-3.37-.41-5.94-1.21-7.7-.81-1.76-2.2-3.11-4.18-4.07-1.98-.95-4.88-1.79-8.69-2.53-3.82-.73-5.72-2.27-5.72-4.62,0-.88.51-1.57,1.54-2.09,1.02-.51,2.2-.77,3.52-.77,3.66,0,7.15.08,10.45.22,3.3.15,6.49.3,9.57.44,3.08.15,6.16.22,9.24.22,3.37,0,6.78-.07,10.23-.22,3.44-.14,6.96-.29,10.56-.44,3.59-.14,7.07-.22,10.45-.22,1.46,0,2.64.26,3.52.77.88.52,1.32,1.29,1.32,2.31,0,1.18-.48,2.09-1.43,2.75-.96.66-2.31,1.21-4.07,1.65-5.72,1.47-9.94,3.04-12.65,4.73-2.71,1.69-4.07,4.66-4.07,8.91v100.51c0,4.25.95,7.37,2.86,9.35,1.9,1.98,5.5,2.97,10.78,2.97h23.97c3.37,0,6.45-.58,9.24-1.76,2.78-1.17,5.06-2.64,6.82-4.4,2.64-2.34,4.84-4.84,6.6-7.48,1.76-2.64,3.44-5.72,5.06-9.24,1.02-2.2,1.98-3.88,2.86-5.06.88-1.17,1.76-1.76,2.64-1.76,1.02,0,1.76.48,2.2,1.43.44.96.66,1.95.66,2.97,0,.15-.08.59-.22,1.32-.15.74-.22,1.32-.22,1.76-1.18,4.25-2.17,7.92-2.97,11-.81,3.08-1.47,6.05-1.98,8.91-.52,2.86-.99,5.98-1.43,9.35-.15,1.03-.44,1.95-.88,2.75-.44.8-1.32,1.21-2.64,1.21-4.4,0-9.68-.08-15.84-.22-6.16-.15-12.68-.26-19.57-.33-6.89-.08-13.82-.19-20.78-.33-6.97-.15-13.53-.22-19.69-.22-3.23,0-6.93.07-11.11.22-4.18.14-8.1.33-11.77.55-3.67.22-6.31.33-7.92.33Z"/>
        <path class="cls-3" d="M1171.49,1337.54c-9.97,0-19.5-1.73-28.59-5.17-9.09-3.44-17.12-8.36-24.08-14.74-6.97-6.38-12.46-14-16.5-22.87-4.03-8.87-6.05-18.73-6.05-29.58,0-9.97,1.65-19.54,4.95-28.7,3.3-9.16,8.21-17.34,14.74-24.52,6.52-7.18,14.59-12.9,24.19-17.16,9.6-4.25,20.71-6.38,33.32-6.38,9.97,0,19.47,1.73,28.48,5.17,9.02,3.45,17.05,8.36,24.08,14.74,7.04,6.38,12.57,14,16.61,22.87,4.03,8.87,6.05,18.73,6.05,29.58,0,9.83-1.65,19.36-4.95,28.59-3.3,9.24-8.21,17.45-14.74,24.63-6.53,7.19-14.59,12.9-24.19,17.16-9.61,4.25-20.71,6.38-33.32,6.38ZM1175.23,1327.86c9.24,0,16.97-2.34,23.2-7.04,6.23-4.69,10.92-11.25,14.08-19.69,3.15-8.43,4.73-18.15,4.73-29.14,0-9.38-.96-18.48-2.86-27.27-1.91-8.8-4.84-16.68-8.8-23.64-3.96-6.96-8.91-12.5-14.85-16.61-5.94-4.1-13.01-6.16-21.22-6.16-9.24,0-16.97,2.35-23.2,7.04-6.23,4.69-10.89,11.22-13.97,19.58-3.08,8.36-4.62,18.04-4.62,29.03,0,9.39.95,18.48,2.86,27.27,1.9,8.8,4.8,16.72,8.69,23.75,3.88,7.04,8.8,12.61,14.74,16.72,5.94,4.11,13.01,6.16,21.22,6.16Z"/>
        <path class="cls-3" d="M1292.02,1335.34c-1.47,0-2.75-.26-3.85-.77-1.1-.51-1.65-1.21-1.65-2.09,0-1.17.51-2.12,1.54-2.86,1.02-.73,2.49-1.24,4.4-1.54,5.57-1.17,9.68-2.82,12.32-4.95,2.64-2.12,3.96-5.61,3.96-10.45v-89.08c0-6.01-.15-10.56-.44-13.64-.3-3.08-.7-5.17-1.21-6.27-.52-1.1-1.29-1.72-2.31-1.87-1.47-.58-3.3-.95-5.5-1.1-2.2-.14-4.33-.22-6.38-.22h-6.82c-4.25,0-8.36.99-12.32,2.97s-7.04,4.66-9.24,8.03c-.59.88-1.51,2.13-2.75,3.74-1.25,1.62-2.57,3.08-3.96,4.4-1.4,1.32-2.82,1.98-4.29,1.98-1.03,0-1.73-.36-2.09-1.1-.37-.73-.55-1.54-.55-2.42,0-1.76.44-3.52,1.32-5.28,2.49-4.98,4.36-9.35,5.61-13.09,1.24-3.74,2.09-8.17,2.53-13.31.29-2.2.91-3.63,1.87-4.29.95-.66,1.94-.99,2.97-.99.88,0,1.94.92,3.19,2.75,1.24,1.84,2.38,3.34,3.41,4.51,1.32,1.32,3.66,2.31,7.04,2.97,3.37.66,6.23.99,8.58.99l81.16-.22c4.1,0,7.55-.33,10.34-.99,2.78-.66,4.98-1.35,6.6-2.09,2.2-1.32,3.96-2.67,5.28-4.07,1.32-1.39,2.86-2.09,4.62-2.09.73,0,1.28.41,1.65,1.21.36.81.55,1.8.55,2.97,0,.74-.08,1.58-.22,2.53-.15.96-.3,1.8-.44,2.53-.59,2.79-1.18,5.24-1.76,7.37-.59,2.13-1.07,4.11-1.43,5.94-.37,1.84-.55,3.92-.55,6.27v3.74c0,2.06-.3,3.81-.88,5.28-.59,1.47-1.54,2.2-2.86,2.2-1.18,0-2.16-.69-2.97-2.09-.81-1.39-1.65-3.55-2.53-6.49-1.32-4.69-3.52-8.17-6.6-10.45-3.08-2.27-7.92-3.41-14.52-3.41h-14.96c-2.79,0-4.95.52-6.49,1.54-1.54,1.03-2.64,3.26-3.3,6.71-.66,3.45-.99,8.76-.99,15.95v87.76c0,4.69,1.32,8.1,3.96,10.23,2.64,2.13,6.82,3.92,12.54,5.39,1.76.44,3.15.96,4.18,1.54,1.02.59,1.54,1.47,1.54,2.64,0,1.03-.48,1.76-1.43,2.2-.96.44-2.16.66-3.63.66-3.52,0-7.04-.08-10.56-.22-3.52-.15-7-.3-10.45-.44-3.45-.14-6.78-.22-10.01-.22s-6.56.08-10.01.22c-3.45.14-6.97.33-10.56.55-3.59.22-7.15.33-10.67.33Z"/>
        <path class="cls-3" d="M1438.5,1337.76c-6.31,0-12.28-.81-17.93-2.42-5.65-1.61-10.82-4.03-15.51-7.26-.88-.73-1.69-1.5-2.42-2.31-.74-.8-1.32-1.72-1.76-2.75-1.18-3.66-1.98-8.17-2.42-13.53-.44-5.35-.59-10.52-.44-15.51,0-1.02.4-1.76,1.21-2.2.8-.44,1.79-.66,2.97-.66s2.09.19,2.75.55c.66.37,1.13,1.07,1.43,2.09,3.22,11,7.92,19.58,14.08,25.73,6.16,6.16,13.12,9.24,20.89,9.24,4.84,0,8.94-1.1,12.32-3.3,3.37-2.2,5.94-5.06,7.7-8.58,1.76-3.52,2.64-7.33,2.64-11.44,0-5.13-.92-9.38-2.75-12.76-1.84-3.37-4.58-6.41-8.25-9.13-3.67-2.71-8.29-5.61-13.86-8.69-6.01-3.52-11.88-7.22-17.6-11.11-5.72-3.88-10.41-8.5-14.08-13.86-3.67-5.35-5.5-11.99-5.5-19.91s2.09-15.43,6.27-21.66c4.18-6.23,10.01-11.11,17.49-14.63,7.48-3.52,16.13-5.28,25.95-5.28,5.42,0,10.48.59,15.18,1.76,4.69,1.18,8.43,2.35,11.22,3.52,1.61.59,2.82,1.32,3.63,2.2.8.88,1.43,2.27,1.87,4.18.88,3.08,1.65,6.75,2.31,11,.66,4.25.99,8.73.99,13.42,0,1.76-1.32,2.64-3.96,2.64-1.18,0-2.35-.29-3.52-.88-1.18-.58-1.91-1.39-2.2-2.42-2.64-8.5-6.27-14.96-10.89-19.36-4.62-4.4-10.3-6.6-17.05-6.6-4.55,0-8.43.77-11.66,2.31-3.23,1.54-5.79,3.89-7.7,7.04-1.91,3.15-2.86,7.22-2.86,12.21,0,3.81,1.28,7.33,3.85,10.56,2.56,3.23,6.16,6.38,10.78,9.46s9.79,6.45,15.51,10.12c7.04,4.11,12.94,8.25,17.71,12.43,4.76,4.18,8.39,8.8,10.89,13.86,2.49,5.06,3.74,11.04,3.74,17.93,0,9.68-2.13,17.78-6.38,24.3-4.25,6.53-10.19,11.44-17.82,14.74-7.63,3.3-16.57,4.95-26.83,4.95Z"/>
      </g>
      <g>
        <path class="cls-4" d="M571.04,1442.01v78.08h-13.16v-78.08h13.16ZM565.69,1442.01h16.28c5.65,0,10.58,1,14.78,3.01,4.2,2.01,7.45,4.82,9.76,8.42,2.3,3.61,3.46,7.86,3.46,12.77s-1.15,9.18-3.46,12.83c-2.31,3.64-5.56,6.47-9.76,8.48-4.2,2.01-9.13,3.01-14.78,3.01h-16.28v-10.82h15.73c2.97,0,5.59-.52,7.86-1.56,2.27-1.04,4.03-2.55,5.3-4.52,1.26-1.97,1.9-4.33,1.9-7.08s-.63-5.2-1.9-7.14c-1.26-1.93-3.03-3.42-5.3-4.46-2.27-1.04-4.89-1.56-7.86-1.56h-15.73v-11.38ZM588.22,1482.83l26.43,37.25h-15.84l-24.87-37.25h14.28Z"/>
        <path class="cls-4" d="M653.91,1442.01v78.08h-12.94v-78.08h12.94ZM649.12,1442.01h39.37v11.6h-39.37v-11.6ZM649.12,1472.57h37.14v11.38h-37.14v-11.38ZM649.12,1508.49h39.37v11.6h-39.37v-11.6Z"/>
        <path class="cls-4" d="M732.05,1502.85c1.97,2.27,4.14,4.02,6.53,5.24,2.38,1.23,5.06,1.84,8.03,1.84,3.57,0,6.47-.97,8.7-2.9,2.23-1.93,3.35-4.42,3.35-7.47s-.71-5.22-2.12-6.97c-1.41-1.75-3.37-3.23-5.86-4.46-2.49-1.23-5.37-2.43-8.64-3.63-1.93-.67-4.09-1.58-6.47-2.73-2.38-1.15-4.65-2.6-6.8-4.35-2.16-1.75-3.94-3.9-5.35-6.47-1.41-2.57-2.12-5.67-2.12-9.31,0-4.16,1.08-7.83,3.23-10.99,2.16-3.16,5.08-5.61,8.76-7.36,3.68-1.75,7.86-2.62,12.55-2.62s8.63.82,12.05,2.45c3.42,1.64,6.3,3.72,8.64,6.25,2.34,2.53,4.18,5.17,5.52,7.92l-10.71,6.02c-.97-1.93-2.19-3.74-3.68-5.41-1.49-1.67-3.22-3.01-5.19-4.02-1.97-1-4.26-1.51-6.86-1.51-3.64,0-6.32.84-8.03,2.51-1.71,1.67-2.57,3.63-2.57,5.86,0,2.01.61,3.81,1.84,5.41,1.23,1.6,3.14,3.11,5.74,4.52,2.6,1.41,5.99,2.86,10.15,4.35,2.3.82,4.63,1.86,6.97,3.12,2.34,1.27,4.48,2.84,6.41,4.74,1.93,1.9,3.47,4.11,4.63,6.64,1.15,2.53,1.73,5.5,1.73,8.92,0,3.64-.71,6.92-2.12,9.82-1.41,2.9-3.35,5.34-5.8,7.31-2.45,1.97-5.23,3.5-8.31,4.57-3.09,1.08-6.3,1.62-9.65,1.62-4.61,0-8.87-.91-12.77-2.73s-7.31-4.26-10.21-7.31c-2.9-3.05-5.21-6.36-6.92-9.93l9.82-6.8c1.71,2.97,3.55,5.6,5.52,7.86Z"/>
        <path class="cls-4" d="M794.9,1442.01h54.43v12.16h-20.64v65.92h-13.27v-65.92h-20.52v-12.16Z"/>
        <path class="cls-4" d="M882.01,1492.76l-.22,2.9-10.82,24.43h-14.84l38.15-82.43,38.15,82.43h-14.83l-10.6-23.76-.33-3.23-12.38-29-12.27,28.67ZM876.33,1488.85h36.25l2.57,11.15h-41.27l2.45-11.15Z"/>
        <path class="cls-4" d="M970.8,1442.01v51.87c0,4.83,1.28,8.72,3.85,11.66,2.57,2.94,6.38,4.41,11.43,4.41s8.77-1.47,11.38-4.41c2.6-2.94,3.9-6.82,3.9-11.66v-51.87h13.16v52.42c0,4.31-.69,8.16-2.06,11.54-1.38,3.38-3.33,6.27-5.86,8.64-2.53,2.38-5.54,4.2-9.03,5.47-3.5,1.26-7.33,1.9-11.49,1.9s-7.99-.63-11.49-1.9c-3.5-1.26-6.53-3.08-9.09-5.47-2.57-2.38-4.52-5.26-5.86-8.64-1.34-3.38-2.01-7.23-2.01-11.54v-52.42h13.16Z"/>
        <path class="cls-4" d="M1061.26,1442.01v78.08h-13.16v-78.08h13.16ZM1055.9,1442.01h16.28c5.65,0,10.58,1,14.78,3.01,4.2,2.01,7.45,4.82,9.76,8.42,2.3,3.61,3.46,7.86,3.46,12.77s-1.15,9.18-3.46,12.83c-2.31,3.64-5.56,6.47-9.76,8.48-4.2,2.01-9.13,3.01-14.78,3.01h-16.28v-10.82h15.73c2.97,0,5.59-.52,7.86-1.56,2.27-1.04,4.03-2.55,5.3-4.52,1.26-1.97,1.9-4.33,1.9-7.08s-.63-5.2-1.9-7.14c-1.26-1.93-3.03-3.42-5.3-4.46-2.27-1.04-4.89-1.56-7.86-1.56h-15.73v-11.38ZM1078.44,1482.83l26.43,37.25h-15.84l-24.87-37.25h14.28Z"/>
        <path class="cls-4" d="M1148.7,1492.76l-.22,2.9-10.82,24.43h-14.84l38.15-82.43,38.15,82.43h-14.83l-10.6-23.76-.33-3.23-12.38-29-12.27,28.67ZM1143.02,1488.85h36.25l2.57,11.15h-41.27l2.45-11.15Z"/>
        <path class="cls-4" d="M1294.82,1442.01v81.98l-57-56.33v52.42h-12.94v-81.98l57,56.33v-52.42h12.94Z"/>
        <path class="cls-4" d="M1321.03,1442.01h54.43v12.16h-20.64v65.92h-13.27v-65.92h-20.52v-12.16Z"/>
        <path class="cls-6" d="M650.12,1636.7c1.97,2.27,4.14,4.02,6.53,5.24,2.38,1.23,5.06,1.84,8.03,1.84,3.57,0,6.47-.97,8.7-2.9,2.23-1.93,3.35-4.42,3.35-7.47s-.71-5.22-2.12-6.97c-1.41-1.75-3.37-3.23-5.86-4.46-2.49-1.23-5.37-2.43-8.64-3.63-1.93-.67-4.09-1.58-6.47-2.73-2.38-1.15-4.65-2.6-6.8-4.35-2.16-1.75-3.94-3.9-5.35-6.47-1.41-2.57-2.12-5.67-2.12-9.31,0-4.16,1.08-7.83,3.23-10.99,2.16-3.16,5.08-5.61,8.76-7.36,3.68-1.75,7.86-2.62,12.55-2.62s8.63.82,12.05,2.45c3.42,1.64,6.3,3.72,8.64,6.25,2.34,2.53,4.18,5.17,5.52,7.92l-10.71,6.02c-.97-1.93-2.19-3.74-3.68-5.41-1.49-1.67-3.22-3.01-5.19-4.02-1.97-1-4.26-1.51-6.86-1.51-3.64,0-6.32.84-8.03,2.51-1.71,1.67-2.57,3.63-2.57,5.86,0,2.01.61,3.81,1.84,5.41,1.23,1.6,3.14,3.11,5.74,4.52,2.6,1.41,5.99,2.86,10.15,4.35,2.3.82,4.63,1.86,6.97,3.12,2.34,1.27,4.48,2.84,6.41,4.74,1.93,1.9,3.47,4.11,4.63,6.64,1.15,2.53,1.73,5.5,1.73,8.92,0,3.64-.71,6.92-2.12,9.82-1.41,2.9-3.35,5.34-5.8,7.31-2.45,1.97-5.23,3.5-8.31,4.57-3.09,1.08-6.3,1.62-9.65,1.62-4.61,0-8.87-.91-12.77-2.73s-7.31-4.26-10.21-7.31c-2.9-3.05-5.21-6.36-6.92-9.93l9.82-6.8c1.71,2.97,3.55,5.6,5.52,7.86Z"/>
        <path class="cls-6" d="M738.29,1626.61l-.22,2.9-10.82,24.43h-14.84l38.15-82.43,38.15,82.43h-14.83l-10.6-23.76-.33-3.23-12.38-29-12.27,28.67ZM732.61,1622.7h36.25l2.57,11.15h-41.27l2.45-11.15Z"/>
        <path class="cls-6" d="M827.75,1575.86v78.08h-13.27v-78.08h13.27Z"/>
        <path class="cls-6" d="M931.82,1575.86v81.98l-57-56.33v52.42h-12.94v-81.98l57,56.33v-52.42h12.94Z"/>
        <path class="cls-6" d="M958.03,1575.86h54.43v12.16h-20.64v65.92h-13.27v-65.92h-20.52v-12.16Z"/>
        <path class="cls-6" d="M1030.64,1622.03h22.87v10.82h-22.87v-10.82Z"/>
        <path class="cls-6" d="M1092.66,1575.86v66.26h31.01v11.82h-44.17v-78.08h13.16Z"/>
        <path class="cls-6" d="M1162.81,1575.86v78.08h-12.94v-78.08h12.94ZM1158.02,1575.86h39.37v11.6h-39.37v-11.6ZM1158.02,1606.42h37.14v11.38h-37.14v-11.38ZM1158.02,1642.33h39.37v11.6h-39.37v-11.6Z"/>
        <path class="cls-6" d="M1242.9,1575.86v51.87c0,4.83,1.28,8.72,3.85,11.66,2.57,2.94,6.38,4.41,11.43,4.41s8.77-1.47,11.38-4.41c2.6-2.94,3.9-6.82,3.9-11.66v-51.87h13.16v52.42c0,4.31-.69,8.16-2.06,11.54-1.38,3.38-3.33,6.27-5.86,8.64-2.53,2.38-5.54,4.2-9.03,5.47-3.5,1.26-7.33,1.9-11.49,1.9s-7.99-.63-11.49-1.9c-3.5-1.26-6.53-3.08-9.09-5.47-2.57-2.38-4.52-5.26-5.86-8.64-1.34-3.38-2.01-7.23-2.01-11.54v-52.42h13.16Z"/>
      </g>
    </g>
  </g>
</svg>